<mxfile host="app.diagrams.net" modified="2024-02-08T15:47:22.989Z" agent="Mozilla/5.0 (Macintosh; Intel Mac OS X 10_15_7) AppleWebKit/537.36 (KHTML, like Gecko) Chrome/121.0.0.0 Safari/537.36" etag="amGoJfPYGzb9xZXbm4zf" version="23.1.1" type="github">
  <diagram name="Page-1" id="fWkxdSE3MDxEK5NCk_mT">
    <mxGraphModel dx="1306" dy="750" grid="1" gridSize="10" guides="1" tooltips="1" connect="1" arrows="1" fold="1" page="1" pageScale="1" pageWidth="850" pageHeight="1100" math="0" shadow="0">
      <root>
        <mxCell id="0" />
        <mxCell id="1" parent="0" />
        <mxCell id="fhgAiH0HmHhDpUUhowHs-14" style="edgeStyle=orthogonalEdgeStyle;rounded=0;orthogonalLoop=1;jettySize=auto;html=1;exitX=1;exitY=0.5;exitDx=0;exitDy=0;entryX=0.5;entryY=0;entryDx=0;entryDy=0;" edge="1" parent="1" source="TbumQkPZerBBFcN5Bay4-3" target="fhgAiH0HmHhDpUUhowHs-8">
          <mxGeometry relative="1" as="geometry">
            <Array as="points">
              <mxPoint x="540" y="152" />
              <mxPoint x="540" y="90" />
              <mxPoint x="670" y="90" />
            </Array>
          </mxGeometry>
        </mxCell>
        <mxCell id="fhgAiH0HmHhDpUUhowHs-15" style="edgeStyle=orthogonalEdgeStyle;rounded=0;orthogonalLoop=1;jettySize=auto;html=1;exitX=1;exitY=0.5;exitDx=0;exitDy=0;entryX=0.5;entryY=0;entryDx=0;entryDy=0;" edge="1" parent="1" source="TbumQkPZerBBFcN5Bay4-16" target="fhgAiH0HmHhDpUUhowHs-9">
          <mxGeometry relative="1" as="geometry" />
        </mxCell>
        <mxCell id="fhgAiH0HmHhDpUUhowHs-13" style="edgeStyle=orthogonalEdgeStyle;rounded=0;orthogonalLoop=1;jettySize=auto;html=1;exitX=0.5;exitY=1;exitDx=0;exitDy=0;entryX=0.5;entryY=0;entryDx=0;entryDy=0;startArrow=classic;startFill=1;" edge="1" parent="1" source="fhgAiH0HmHhDpUUhowHs-7" target="fhgAiH0HmHhDpUUhowHs-4">
          <mxGeometry relative="1" as="geometry" />
        </mxCell>
        <mxCell id="fhgAiH0HmHhDpUUhowHs-134" style="edgeStyle=orthogonalEdgeStyle;rounded=0;orthogonalLoop=1;jettySize=auto;html=1;exitX=0.5;exitY=1;exitDx=0;exitDy=0;entryX=0.5;entryY=0;entryDx=0;entryDy=0;startArrow=classic;startFill=1;" edge="1" parent="1" source="fhgAiH0HmHhDpUUhowHs-136" target="fhgAiH0HmHhDpUUhowHs-131">
          <mxGeometry relative="1" as="geometry" />
        </mxCell>
        <mxCell id="fhgAiH0HmHhDpUUhowHs-167" style="edgeStyle=orthogonalEdgeStyle;rounded=0;orthogonalLoop=1;jettySize=auto;html=1;exitX=1;exitY=0.5;exitDx=0;exitDy=0;exitPerimeter=0;entryX=0.5;entryY=1;entryDx=0;entryDy=0;" edge="1" parent="1" source="fhgAiH0HmHhDpUUhowHs-149" target="fhgAiH0HmHhDpUUhowHs-156">
          <mxGeometry relative="1" as="geometry" />
        </mxCell>
        <mxCell id="fhgAiH0HmHhDpUUhowHs-152" value="" style="group" vertex="1" connectable="0" parent="1">
          <mxGeometry x="690" y="650" width="160" height="120" as="geometry" />
        </mxCell>
        <mxCell id="fhgAiH0HmHhDpUUhowHs-133" value="" style="rounded=0;whiteSpace=wrap;html=1;" vertex="1" parent="fhgAiH0HmHhDpUUhowHs-152">
          <mxGeometry width="160" height="120" as="geometry" />
        </mxCell>
        <mxCell id="fhgAiH0HmHhDpUUhowHs-136" value="HDMI" style="rounded=0;whiteSpace=wrap;html=1;fillColor=#dae8fc;strokeColor=#6c8ebf;" vertex="1" parent="fhgAiH0HmHhDpUUhowHs-152">
          <mxGeometry x="80" y="90" width="60" height="30" as="geometry" />
        </mxCell>
        <mxCell id="fhgAiH0HmHhDpUUhowHs-137" value="" style="rounded=0;whiteSpace=wrap;html=1;fillColor=#f8cecc;strokeColor=#b85450;" vertex="1" parent="fhgAiH0HmHhDpUUhowHs-152">
          <mxGeometry x="10" width="20" height="20" as="geometry" />
        </mxCell>
        <mxCell id="fhgAiH0HmHhDpUUhowHs-139" value="" style="rounded=0;whiteSpace=wrap;html=1;fillColor=#f8cecc;strokeColor=#b85450;" vertex="1" parent="fhgAiH0HmHhDpUUhowHs-152">
          <mxGeometry x="130" width="20" height="20" as="geometry" />
        </mxCell>
        <mxCell id="fhgAiH0HmHhDpUUhowHs-140" style="edgeStyle=orthogonalEdgeStyle;rounded=0;orthogonalLoop=1;jettySize=auto;html=1;exitX=0.25;exitY=1;exitDx=0;exitDy=0;entryX=0.75;entryY=0;entryDx=0;entryDy=0;startArrow=classic;startFill=1;" edge="1" parent="fhgAiH0HmHhDpUUhowHs-152" source="fhgAiH0HmHhDpUUhowHs-141" target="fhgAiH0HmHhDpUUhowHs-136">
          <mxGeometry relative="1" as="geometry">
            <Array as="points">
              <mxPoint x="124" y="80" />
              <mxPoint x="125" y="80" />
            </Array>
          </mxGeometry>
        </mxCell>
        <mxCell id="fhgAiH0HmHhDpUUhowHs-141" value="LTC4331" style="rounded=0;whiteSpace=wrap;html=1;fillColor=#ffe6cc;strokeColor=#d79b00;fontSize=6;" vertex="1" parent="fhgAiH0HmHhDpUUhowHs-152">
          <mxGeometry x="115" y="50" width="35" height="16" as="geometry" />
        </mxCell>
        <mxCell id="fhgAiH0HmHhDpUUhowHs-142" value="PWR" style="rounded=0;whiteSpace=wrap;html=1;fillColor=#d5e8d4;strokeColor=#82b366;" vertex="1" parent="fhgAiH0HmHhDpUUhowHs-152">
          <mxGeometry y="50" width="40" height="16" as="geometry" />
        </mxCell>
        <mxCell id="fhgAiH0HmHhDpUUhowHs-138" style="edgeStyle=orthogonalEdgeStyle;rounded=0;orthogonalLoop=1;jettySize=auto;html=1;exitX=0.25;exitY=1;exitDx=0;exitDy=0;entryX=0.5;entryY=0;entryDx=0;entryDy=0;startArrow=classic;startFill=1;" edge="1" parent="fhgAiH0HmHhDpUUhowHs-152" source="fhgAiH0HmHhDpUUhowHs-139" target="fhgAiH0HmHhDpUUhowHs-141">
          <mxGeometry relative="1" as="geometry">
            <Array as="points">
              <mxPoint x="135" y="30" />
              <mxPoint x="132" y="30" />
            </Array>
          </mxGeometry>
        </mxCell>
        <mxCell id="fhgAiH0HmHhDpUUhowHs-144" style="edgeStyle=orthogonalEdgeStyle;rounded=0;orthogonalLoop=1;jettySize=auto;html=1;exitX=0.5;exitY=1;exitDx=0;exitDy=0;entryX=0.111;entryY=0.071;entryDx=0;entryDy=0;entryPerimeter=0;" edge="1" parent="fhgAiH0HmHhDpUUhowHs-152" source="fhgAiH0HmHhDpUUhowHs-137" target="fhgAiH0HmHhDpUUhowHs-136">
          <mxGeometry relative="1" as="geometry">
            <Array as="points">
              <mxPoint x="20" y="40" />
              <mxPoint x="87" y="40" />
            </Array>
          </mxGeometry>
        </mxCell>
        <mxCell id="fhgAiH0HmHhDpUUhowHs-145" style="edgeStyle=orthogonalEdgeStyle;rounded=0;orthogonalLoop=1;jettySize=auto;html=1;exitX=0;exitY=0.5;exitDx=0;exitDy=0;entryX=0.326;entryY=0.049;entryDx=0;entryDy=0;entryPerimeter=0;" edge="1" parent="fhgAiH0HmHhDpUUhowHs-152" source="fhgAiH0HmHhDpUUhowHs-139" target="fhgAiH0HmHhDpUUhowHs-136">
          <mxGeometry relative="1" as="geometry" />
        </mxCell>
        <mxCell id="fhgAiH0HmHhDpUUhowHs-153" value="" style="group" vertex="1" connectable="0" parent="1">
          <mxGeometry x="650" y="120" width="160" height="120" as="geometry" />
        </mxCell>
        <mxCell id="fhgAiH0HmHhDpUUhowHs-6" value="" style="rounded=0;whiteSpace=wrap;html=1;" vertex="1" parent="fhgAiH0HmHhDpUUhowHs-153">
          <mxGeometry width="160" height="120" as="geometry" />
        </mxCell>
        <mxCell id="fhgAiH0HmHhDpUUhowHs-7" value="HDMI" style="rounded=0;whiteSpace=wrap;html=1;fillColor=#dae8fc;strokeColor=#6c8ebf;" vertex="1" parent="fhgAiH0HmHhDpUUhowHs-153">
          <mxGeometry x="80" y="90" width="60" height="30" as="geometry" />
        </mxCell>
        <mxCell id="fhgAiH0HmHhDpUUhowHs-8" value="" style="rounded=0;whiteSpace=wrap;html=1;fillColor=#f8cecc;strokeColor=#b85450;" vertex="1" parent="fhgAiH0HmHhDpUUhowHs-153">
          <mxGeometry x="10" width="20" height="20" as="geometry" />
        </mxCell>
        <mxCell id="fhgAiH0HmHhDpUUhowHs-9" value="" style="rounded=0;whiteSpace=wrap;html=1;fillColor=#f8cecc;strokeColor=#b85450;" vertex="1" parent="fhgAiH0HmHhDpUUhowHs-153">
          <mxGeometry x="130" width="20" height="20" as="geometry" />
        </mxCell>
        <mxCell id="fhgAiH0HmHhDpUUhowHs-20" style="edgeStyle=orthogonalEdgeStyle;rounded=0;orthogonalLoop=1;jettySize=auto;html=1;exitX=0.25;exitY=1;exitDx=0;exitDy=0;entryX=0.75;entryY=0;entryDx=0;entryDy=0;startArrow=classic;startFill=1;" edge="1" parent="fhgAiH0HmHhDpUUhowHs-153" source="fhgAiH0HmHhDpUUhowHs-10" target="fhgAiH0HmHhDpUUhowHs-7">
          <mxGeometry relative="1" as="geometry">
            <Array as="points">
              <mxPoint x="124" y="80" />
              <mxPoint x="125" y="80" />
            </Array>
          </mxGeometry>
        </mxCell>
        <mxCell id="fhgAiH0HmHhDpUUhowHs-10" value="LTC4331" style="rounded=0;whiteSpace=wrap;html=1;fillColor=#ffe6cc;strokeColor=#d79b00;fontSize=6;" vertex="1" parent="fhgAiH0HmHhDpUUhowHs-153">
          <mxGeometry x="115" y="50" width="35" height="16" as="geometry" />
        </mxCell>
        <mxCell id="fhgAiH0HmHhDpUUhowHs-11" value="PWR" style="rounded=0;whiteSpace=wrap;html=1;fillColor=#d5e8d4;strokeColor=#82b366;" vertex="1" parent="fhgAiH0HmHhDpUUhowHs-153">
          <mxGeometry y="50" width="40" height="16" as="geometry" />
        </mxCell>
        <mxCell id="fhgAiH0HmHhDpUUhowHs-12" value="JTAG" style="rounded=0;whiteSpace=wrap;html=1;fillColor=#e1d5e7;strokeColor=#9673a6;fontSize=6;" vertex="1" parent="fhgAiH0HmHhDpUUhowHs-153">
          <mxGeometry y="100" width="55" height="20" as="geometry" />
        </mxCell>
        <mxCell id="fhgAiH0HmHhDpUUhowHs-21" style="edgeStyle=orthogonalEdgeStyle;rounded=0;orthogonalLoop=1;jettySize=auto;html=1;exitX=0.25;exitY=1;exitDx=0;exitDy=0;entryX=0.5;entryY=0;entryDx=0;entryDy=0;startArrow=classic;startFill=1;" edge="1" parent="fhgAiH0HmHhDpUUhowHs-153" source="fhgAiH0HmHhDpUUhowHs-9" target="fhgAiH0HmHhDpUUhowHs-10">
          <mxGeometry relative="1" as="geometry">
            <Array as="points">
              <mxPoint x="135" y="30" />
              <mxPoint x="132" y="30" />
            </Array>
          </mxGeometry>
        </mxCell>
        <mxCell id="fhgAiH0HmHhDpUUhowHs-16" style="edgeStyle=orthogonalEdgeStyle;rounded=0;orthogonalLoop=1;jettySize=auto;html=1;exitX=0.5;exitY=1;exitDx=0;exitDy=0;entryX=0.111;entryY=0.071;entryDx=0;entryDy=0;entryPerimeter=0;" edge="1" parent="fhgAiH0HmHhDpUUhowHs-153" source="fhgAiH0HmHhDpUUhowHs-8" target="fhgAiH0HmHhDpUUhowHs-7">
          <mxGeometry relative="1" as="geometry">
            <Array as="points">
              <mxPoint x="20" y="40" />
              <mxPoint x="87" y="40" />
            </Array>
          </mxGeometry>
        </mxCell>
        <mxCell id="fhgAiH0HmHhDpUUhowHs-23" style="edgeStyle=orthogonalEdgeStyle;rounded=0;orthogonalLoop=1;jettySize=auto;html=1;exitX=0;exitY=0.5;exitDx=0;exitDy=0;entryX=1;entryY=0.5;entryDx=0;entryDy=0;" edge="1" parent="fhgAiH0HmHhDpUUhowHs-153" source="fhgAiH0HmHhDpUUhowHs-7" target="fhgAiH0HmHhDpUUhowHs-12">
          <mxGeometry relative="1" as="geometry">
            <Array as="points">
              <mxPoint x="70" y="105" />
              <mxPoint x="70" y="110" />
            </Array>
          </mxGeometry>
        </mxCell>
        <mxCell id="fhgAiH0HmHhDpUUhowHs-17" style="edgeStyle=orthogonalEdgeStyle;rounded=0;orthogonalLoop=1;jettySize=auto;html=1;exitX=0;exitY=0.5;exitDx=0;exitDy=0;entryX=0.326;entryY=0.049;entryDx=0;entryDy=0;entryPerimeter=0;" edge="1" parent="fhgAiH0HmHhDpUUhowHs-153" source="fhgAiH0HmHhDpUUhowHs-9" target="fhgAiH0HmHhDpUUhowHs-7">
          <mxGeometry relative="1" as="geometry" />
        </mxCell>
        <mxCell id="fhgAiH0HmHhDpUUhowHs-154" value="" style="group" vertex="1" connectable="0" parent="1">
          <mxGeometry x="500" y="650" width="160" height="120" as="geometry" />
        </mxCell>
        <mxCell id="fhgAiH0HmHhDpUUhowHs-155" value="" style="rounded=0;whiteSpace=wrap;html=1;" vertex="1" parent="fhgAiH0HmHhDpUUhowHs-154">
          <mxGeometry width="160" height="120" as="geometry" />
        </mxCell>
        <mxCell id="fhgAiH0HmHhDpUUhowHs-156" value="HDMI" style="rounded=0;whiteSpace=wrap;html=1;fillColor=#dae8fc;strokeColor=#6c8ebf;" vertex="1" parent="fhgAiH0HmHhDpUUhowHs-154">
          <mxGeometry x="80" y="90" width="60" height="30" as="geometry" />
        </mxCell>
        <mxCell id="fhgAiH0HmHhDpUUhowHs-157" value="" style="rounded=0;whiteSpace=wrap;html=1;fillColor=#f8cecc;strokeColor=#b85450;" vertex="1" parent="fhgAiH0HmHhDpUUhowHs-154">
          <mxGeometry x="10" width="20" height="20" as="geometry" />
        </mxCell>
        <mxCell id="fhgAiH0HmHhDpUUhowHs-168" style="edgeStyle=orthogonalEdgeStyle;rounded=0;orthogonalLoop=1;jettySize=auto;html=1;exitX=0.5;exitY=0;exitDx=0;exitDy=0;" edge="1" parent="fhgAiH0HmHhDpUUhowHs-154" source="fhgAiH0HmHhDpUUhowHs-158">
          <mxGeometry relative="1" as="geometry">
            <mxPoint x="330" y="0.33333333333325754" as="targetPoint" />
            <Array as="points">
              <mxPoint x="140" y="-20" />
              <mxPoint x="330" y="-20" />
            </Array>
          </mxGeometry>
        </mxCell>
        <mxCell id="fhgAiH0HmHhDpUUhowHs-158" value="" style="rounded=0;whiteSpace=wrap;html=1;fillColor=#f8cecc;strokeColor=#b85450;" vertex="1" parent="fhgAiH0HmHhDpUUhowHs-154">
          <mxGeometry x="130" width="20" height="20" as="geometry" />
        </mxCell>
        <mxCell id="fhgAiH0HmHhDpUUhowHs-159" style="edgeStyle=orthogonalEdgeStyle;rounded=0;orthogonalLoop=1;jettySize=auto;html=1;exitX=0.25;exitY=1;exitDx=0;exitDy=0;entryX=0.75;entryY=0;entryDx=0;entryDy=0;startArrow=classic;startFill=1;" edge="1" parent="fhgAiH0HmHhDpUUhowHs-154" source="fhgAiH0HmHhDpUUhowHs-160" target="fhgAiH0HmHhDpUUhowHs-156">
          <mxGeometry relative="1" as="geometry">
            <Array as="points">
              <mxPoint x="124" y="80" />
              <mxPoint x="125" y="80" />
            </Array>
          </mxGeometry>
        </mxCell>
        <mxCell id="fhgAiH0HmHhDpUUhowHs-160" value="LTC4331" style="rounded=0;whiteSpace=wrap;html=1;fillColor=#ffe6cc;strokeColor=#d79b00;fontSize=6;" vertex="1" parent="fhgAiH0HmHhDpUUhowHs-154">
          <mxGeometry x="115" y="50" width="35" height="16" as="geometry" />
        </mxCell>
        <mxCell id="fhgAiH0HmHhDpUUhowHs-161" value="PWR" style="rounded=0;whiteSpace=wrap;html=1;fillColor=#d5e8d4;strokeColor=#82b366;" vertex="1" parent="fhgAiH0HmHhDpUUhowHs-154">
          <mxGeometry y="50" width="40" height="16" as="geometry" />
        </mxCell>
        <mxCell id="fhgAiH0HmHhDpUUhowHs-163" style="edgeStyle=orthogonalEdgeStyle;rounded=0;orthogonalLoop=1;jettySize=auto;html=1;exitX=0.25;exitY=1;exitDx=0;exitDy=0;entryX=0.5;entryY=0;entryDx=0;entryDy=0;startArrow=classic;startFill=1;" edge="1" parent="fhgAiH0HmHhDpUUhowHs-154" source="fhgAiH0HmHhDpUUhowHs-158" target="fhgAiH0HmHhDpUUhowHs-160">
          <mxGeometry relative="1" as="geometry">
            <Array as="points">
              <mxPoint x="135" y="30" />
              <mxPoint x="132" y="30" />
            </Array>
          </mxGeometry>
        </mxCell>
        <mxCell id="fhgAiH0HmHhDpUUhowHs-164" style="edgeStyle=orthogonalEdgeStyle;rounded=0;orthogonalLoop=1;jettySize=auto;html=1;exitX=0.5;exitY=1;exitDx=0;exitDy=0;entryX=0.111;entryY=0.071;entryDx=0;entryDy=0;entryPerimeter=0;" edge="1" parent="fhgAiH0HmHhDpUUhowHs-154" source="fhgAiH0HmHhDpUUhowHs-157" target="fhgAiH0HmHhDpUUhowHs-156">
          <mxGeometry relative="1" as="geometry">
            <Array as="points">
              <mxPoint x="20" y="40" />
              <mxPoint x="87" y="40" />
            </Array>
          </mxGeometry>
        </mxCell>
        <mxCell id="fhgAiH0HmHhDpUUhowHs-166" style="edgeStyle=orthogonalEdgeStyle;rounded=0;orthogonalLoop=1;jettySize=auto;html=1;exitX=0;exitY=0.5;exitDx=0;exitDy=0;entryX=0.326;entryY=0.049;entryDx=0;entryDy=0;entryPerimeter=0;" edge="1" parent="fhgAiH0HmHhDpUUhowHs-154" source="fhgAiH0HmHhDpUUhowHs-158" target="fhgAiH0HmHhDpUUhowHs-156">
          <mxGeometry relative="1" as="geometry" />
        </mxCell>
        <mxCell id="fhgAiH0HmHhDpUUhowHs-169" style="edgeStyle=orthogonalEdgeStyle;rounded=0;orthogonalLoop=1;jettySize=auto;html=1;exitX=0.5;exitY=0;exitDx=0;exitDy=0;entryX=0.5;entryY=0;entryDx=0;entryDy=0;" edge="1" parent="1" source="fhgAiH0HmHhDpUUhowHs-157" target="fhgAiH0HmHhDpUUhowHs-137">
          <mxGeometry relative="1" as="geometry">
            <Array as="points">
              <mxPoint x="520" y="620" />
              <mxPoint x="710" y="620" />
            </Array>
          </mxGeometry>
        </mxCell>
        <mxCell id="fhgAiH0HmHhDpUUhowHs-186" style="edgeStyle=orthogonalEdgeStyle;rounded=0;orthogonalLoop=1;jettySize=auto;html=1;exitX=1;exitY=0.5;exitDx=0;exitDy=0;exitPerimeter=0;entryX=0.5;entryY=0;entryDx=0;entryDy=0;" edge="1" parent="1" source="fhgAiH0HmHhDpUUhowHs-187" target="fhgAiH0HmHhDpUUhowHs-180">
          <mxGeometry relative="1" as="geometry">
            <mxPoint x="610" y="1310" as="targetPoint" />
          </mxGeometry>
        </mxCell>
        <mxCell id="fhgAiH0HmHhDpUUhowHs-218" value="" style="group;" vertex="1" connectable="0" parent="1">
          <mxGeometry x="620" y="1360" width="160" height="230" as="geometry" />
        </mxCell>
        <mxCell id="fhgAiH0HmHhDpUUhowHs-179" value="Backplane" style="rounded=0;whiteSpace=wrap;html=1;" vertex="1" parent="fhgAiH0HmHhDpUUhowHs-218">
          <mxGeometry width="160" height="230" as="geometry" />
        </mxCell>
        <mxCell id="fhgAiH0HmHhDpUUhowHs-237" style="edgeStyle=orthogonalEdgeStyle;rounded=0;orthogonalLoop=1;jettySize=auto;html=1;exitX=0.5;exitY=1;exitDx=0;exitDy=0;entryX=0.5;entryY=0;entryDx=0;entryDy=0;" edge="1" parent="fhgAiH0HmHhDpUUhowHs-218" source="fhgAiH0HmHhDpUUhowHs-180" target="fhgAiH0HmHhDpUUhowHs-236">
          <mxGeometry relative="1" as="geometry" />
        </mxCell>
        <mxCell id="fhgAiH0HmHhDpUUhowHs-180" value="HDMI" style="rounded=0;whiteSpace=wrap;html=1;fillColor=#dae8fc;strokeColor=#6c8ebf;" vertex="1" parent="fhgAiH0HmHhDpUUhowHs-218">
          <mxGeometry x="90" width="60" height="30" as="geometry" />
        </mxCell>
        <mxCell id="fhgAiH0HmHhDpUUhowHs-181" value="PWR" style="rounded=0;whiteSpace=wrap;html=1;fillColor=#d5e8d4;strokeColor=#82b366;" vertex="1" parent="fhgAiH0HmHhDpUUhowHs-218">
          <mxGeometry x="20" width="40" height="20" as="geometry" />
        </mxCell>
        <mxCell id="fhgAiH0HmHhDpUUhowHs-236" value="I2C buffer" style="rounded=0;whiteSpace=wrap;html=1;" vertex="1" parent="fhgAiH0HmHhDpUUhowHs-218">
          <mxGeometry x="90" y="60" width="60" height="30" as="geometry" />
        </mxCell>
        <mxCell id="fhgAiH0HmHhDpUUhowHs-219" value="" style="group" vertex="1" connectable="0" parent="1">
          <mxGeometry y="1145" width="450.05" height="435" as="geometry" />
        </mxCell>
        <mxCell id="fhgAiH0HmHhDpUUhowHs-170" value="Zynq PL" style="whiteSpace=wrap;html=1;aspect=fixed;points=[[0,0,0,0,0],[0,0.25,0,0,0],[0,0.5,0,0,0],[0,0.75,0,0,0],[0,1,0,0,0],[0.25,0,0,0,0],[0.25,1,0,0,0],[0.5,0,0,0,0],[0.5,1,0,0,0],[0.75,0,0,0,0],[0.75,1,0,0,0],[1,0,0,0,0],[1,0.09,0,0,0],[1,0.18,0,0,0],[1,0.27,0,0,0],[1,0.36,0,0,0],[1,0.45,0,0,0],[1,0.55,0,0,0],[1,0.64,0,0,0],[1,0.73,0,0,0],[1,0.82,0,0,0],[1,0.91,0,0,0],[1,1,0,0,0]];" vertex="1" parent="fhgAiH0HmHhDpUUhowHs-219">
          <mxGeometry x="30" y="155" width="80" height="80" as="geometry" />
        </mxCell>
        <mxCell id="fhgAiH0HmHhDpUUhowHs-171" style="edgeStyle=orthogonalEdgeStyle;rounded=0;orthogonalLoop=1;jettySize=auto;html=1;exitX=1;exitY=0.82;exitDx=0;exitDy=0;exitPerimeter=0;entryX=0;entryY=0.54;entryDx=0;entryDy=0;entryPerimeter=0;" edge="1" parent="fhgAiH0HmHhDpUUhowHs-219" source="fhgAiH0HmHhDpUUhowHs-170" target="fhgAiH0HmHhDpUUhowHs-187">
          <mxGeometry relative="1" as="geometry">
            <Array as="points">
              <mxPoint x="370" y="221" />
              <mxPoint x="370" y="232" />
            </Array>
            <mxPoint x="445" y="345" as="targetPoint" />
          </mxGeometry>
        </mxCell>
        <mxCell id="fhgAiH0HmHhDpUUhowHs-172" style="edgeStyle=orthogonalEdgeStyle;rounded=0;orthogonalLoop=1;jettySize=auto;html=1;exitX=1;exitY=0.91;exitDx=0;exitDy=0;exitPerimeter=0;entryX=0;entryY=0.62;entryDx=0;entryDy=0;entryPerimeter=0;" edge="1" parent="fhgAiH0HmHhDpUUhowHs-219" source="fhgAiH0HmHhDpUUhowHs-170" target="fhgAiH0HmHhDpUUhowHs-187">
          <mxGeometry relative="1" as="geometry">
            <mxPoint x="440" y="345" as="targetPoint" />
            <Array as="points">
              <mxPoint x="380" y="228" />
              <mxPoint x="380" y="247" />
              <mxPoint x="390" y="247" />
            </Array>
          </mxGeometry>
        </mxCell>
        <mxCell id="fhgAiH0HmHhDpUUhowHs-173" style="edgeStyle=orthogonalEdgeStyle;rounded=0;orthogonalLoop=1;jettySize=auto;html=1;exitX=1;exitY=0.73;exitDx=0;exitDy=0;exitPerimeter=0;entryX=0;entryY=0.46;entryDx=0;entryDy=0;entryPerimeter=0;" edge="1" parent="fhgAiH0HmHhDpUUhowHs-219" source="fhgAiH0HmHhDpUUhowHs-170" target="fhgAiH0HmHhDpUUhowHs-187">
          <mxGeometry relative="1" as="geometry">
            <mxPoint x="435" y="345" as="targetPoint" />
            <Array as="points">
              <mxPoint x="360" y="213" />
              <mxPoint x="360" y="218" />
            </Array>
          </mxGeometry>
        </mxCell>
        <mxCell id="fhgAiH0HmHhDpUUhowHs-174" value="BCR+/-" style="edgeStyle=orthogonalEdgeStyle;rounded=0;orthogonalLoop=1;jettySize=auto;html=1;entryX=0;entryY=0.38;entryDx=0;entryDy=0;fontSize=8;exitX=0.989;exitY=0.511;exitDx=0;exitDy=0;exitPerimeter=0;entryPerimeter=0;" edge="1" parent="fhgAiH0HmHhDpUUhowHs-219" source="fhgAiH0HmHhDpUUhowHs-170" target="fhgAiH0HmHhDpUUhowHs-187">
          <mxGeometry x="0.7226" y="-2" relative="1" as="geometry">
            <mxPoint x="110" y="198" as="sourcePoint" />
            <mxPoint x="440" y="87.00000000000023" as="targetPoint" />
            <mxPoint as="offset" />
            <Array as="points">
              <mxPoint x="350" y="196" />
              <mxPoint x="350" y="203" />
            </Array>
          </mxGeometry>
        </mxCell>
        <mxCell id="fhgAiH0HmHhDpUUhowHs-175" value="SDA/CLK" style="edgeStyle=orthogonalEdgeStyle;rounded=0;orthogonalLoop=1;jettySize=auto;html=1;exitX=1;exitY=0.09;exitDx=0;exitDy=0;endArrow=classic;endFill=1;exitPerimeter=0;startArrow=classic;startFill=1;fontSize=8;entryX=0;entryY=0.08;entryDx=0;entryDy=0;entryPerimeter=0;" edge="1" parent="fhgAiH0HmHhDpUUhowHs-219" source="fhgAiH0HmHhDpUUhowHs-170" target="fhgAiH0HmHhDpUUhowHs-187">
          <mxGeometry x="-0.0008" relative="1" as="geometry">
            <mxPoint x="382" y="115" as="targetPoint" />
            <mxPoint as="offset" />
          </mxGeometry>
        </mxCell>
        <mxCell id="fhgAiH0HmHhDpUUhowHs-176" value="Level shifter" style="rounded=0;whiteSpace=wrap;html=1;" vertex="1" parent="fhgAiH0HmHhDpUUhowHs-219">
          <mxGeometry x="170" y="211" width="120" height="20" as="geometry" />
        </mxCell>
        <mxCell id="fhgAiH0HmHhDpUUhowHs-178" value="CLK&lt;br&gt;Chip" style="rounded=0;whiteSpace=wrap;html=1;" vertex="1" parent="fhgAiH0HmHhDpUUhowHs-219">
          <mxGeometry x="100" y="65" width="70" height="70" as="geometry" />
        </mxCell>
        <mxCell id="fhgAiH0HmHhDpUUhowHs-183" value="zCCM" style="swimlane;horizontal=0;whiteSpace=wrap;html=1;" vertex="1" parent="fhgAiH0HmHhDpUUhowHs-219">
          <mxGeometry width="450" height="435" as="geometry">
            <mxRectangle y="75" width="40" height="60" as="alternateBounds" />
          </mxGeometry>
        </mxCell>
        <mxCell id="fhgAiH0HmHhDpUUhowHs-184" value="PGOOD&lt;br style=&quot;font-size: 8px;&quot;&gt;PENABLE&lt;br style=&quot;font-size: 8px;&quot;&gt;RESET" style="text;html=1;strokeColor=none;fillColor=none;align=center;verticalAlign=middle;whiteSpace=wrap;rounded=0;fontSize=8;" vertex="1" parent="fhgAiH0HmHhDpUUhowHs-183">
          <mxGeometry x="120" y="231" width="60" height="30" as="geometry" />
        </mxCell>
        <mxCell id="fhgAiH0HmHhDpUUhowHs-185" value="LED+/-" style="edgeStyle=orthogonalEdgeStyle;rounded=0;orthogonalLoop=1;jettySize=auto;html=1;exitX=1;exitY=0.36;exitDx=0;exitDy=0;exitPerimeter=0;fontSize=8;entryX=0;entryY=0.31;entryDx=0;entryDy=0;entryPerimeter=0;" edge="1" parent="fhgAiH0HmHhDpUUhowHs-219" source="fhgAiH0HmHhDpUUhowHs-170" target="fhgAiH0HmHhDpUUhowHs-187">
          <mxGeometry x="0.4257" relative="1" as="geometry">
            <mxPoint as="offset" />
            <mxPoint x="110" y="184" as="sourcePoint" />
            <mxPoint x="390" y="225" as="targetPoint" />
            <Array as="points">
              <mxPoint x="350" y="184" />
              <mxPoint x="350" y="191" />
            </Array>
          </mxGeometry>
        </mxCell>
        <mxCell id="fhgAiH0HmHhDpUUhowHs-187" value="HDMI" style="rounded=0;whiteSpace=wrap;html=1;fillColor=#dae8fc;strokeColor=#6c8ebf;points=[[0,0,0,0,0],[0,0.08,0,0,0],[0,0.15,0,0,0],[0,0.23,0,0,0],[0,0.31,0,0,0],[0,0.38,0,0,0],[0,0.46,0,0,0],[0,0.54,0,0,0],[0,0.62,0,0,0],[0,0.69,0,0,0],[0,0.77,0,0,0],[0,0.85,0,0,0],[0,0.92,0,0,0],[0,1,0,0,0],[0.25,0,0,0,0],[0.25,1,0,0,0],[0.5,0,0,0,0],[0.5,1,0,0,0],[0.75,0,0,0,0],[0.75,1,0,0,0],[1,0,0,0,0],[1,0.25,0,0,0],[1,0.5,0,0,0],[1,0.75,0,0,0],[1,1,0,0,0]];" vertex="1" parent="fhgAiH0HmHhDpUUhowHs-219">
          <mxGeometry x="390" y="135" width="60.05" height="180" as="geometry" />
        </mxCell>
        <mxCell id="fhgAiH0HmHhDpUUhowHs-188" value="Clock fanout" style="rounded=0;whiteSpace=wrap;html=1;" vertex="1" parent="fhgAiH0HmHhDpUUhowHs-219">
          <mxGeometry x="170" y="169" width="120" height="30" as="geometry" />
        </mxCell>
        <mxCell id="fhgAiH0HmHhDpUUhowHs-177" value="MCLK+/-" style="edgeStyle=orthogonalEdgeStyle;rounded=0;orthogonalLoop=1;jettySize=auto;html=1;exitX=0.5;exitY=1;exitDx=0;exitDy=0;fontSize=8;entryX=0;entryY=0.23;entryDx=0;entryDy=0;entryPerimeter=0;" edge="1" parent="fhgAiH0HmHhDpUUhowHs-219" source="fhgAiH0HmHhDpUUhowHs-178" target="fhgAiH0HmHhDpUUhowHs-187">
          <mxGeometry x="0.7207" relative="1" as="geometry">
            <Array as="points">
              <mxPoint x="135" y="175" />
              <mxPoint x="350" y="175" />
              <mxPoint x="350" y="176" />
            </Array>
            <mxPoint as="offset" />
            <mxPoint x="390" y="191" as="targetPoint" />
          </mxGeometry>
        </mxCell>
        <mxCell id="fhgAiH0HmHhDpUUhowHs-189" value="JTAG" style="edgeStyle=orthogonalEdgeStyle;rounded=0;orthogonalLoop=1;jettySize=auto;html=1;exitX=0.5;exitY=1;exitDx=0;exitDy=0;exitPerimeter=0;entryX=0;entryY=0.77;entryDx=0;entryDy=0;entryPerimeter=0;fontSize=8;" edge="1" parent="fhgAiH0HmHhDpUUhowHs-219" source="fhgAiH0HmHhDpUUhowHs-170" target="fhgAiH0HmHhDpUUhowHs-187">
          <mxGeometry relative="1" as="geometry" />
        </mxCell>
        <mxCell id="fhgAiH0HmHhDpUUhowHs-220" value="" style="group" vertex="1" connectable="0" parent="1">
          <mxGeometry y="605" width="450.05" height="435" as="geometry" />
        </mxCell>
        <mxCell id="fhgAiH0HmHhDpUUhowHs-87" value="Zynq PL" style="whiteSpace=wrap;html=1;aspect=fixed;points=[[0,0,0,0,0],[0,0.25,0,0,0],[0,0.5,0,0,0],[0,0.75,0,0,0],[0,1,0,0,0],[0.25,0,0,0,0],[0.25,1,0,0,0],[0.5,0,0,0,0],[0.5,1,0,0,0],[0.75,0,0,0,0],[0.75,1,0,0,0],[1,0,0,0,0],[1,0.09,0,0,0],[1,0.18,0,0,0],[1,0.27,0,0,0],[1,0.36,0,0,0],[1,0.45,0,0,0],[1,0.55,0,0,0],[1,0.64,0,0,0],[1,0.73,0,0,0],[1,0.82,0,0,0],[1,0.91,0,0,0],[1,1,0,0,0]];" vertex="1" parent="fhgAiH0HmHhDpUUhowHs-220">
          <mxGeometry x="30" y="155" width="80" height="80" as="geometry" />
        </mxCell>
        <mxCell id="fhgAiH0HmHhDpUUhowHs-96" style="edgeStyle=orthogonalEdgeStyle;rounded=0;orthogonalLoop=1;jettySize=auto;html=1;exitX=1;exitY=0.82;exitDx=0;exitDy=0;exitPerimeter=0;entryX=0;entryY=0.54;entryDx=0;entryDy=0;entryPerimeter=0;" edge="1" parent="fhgAiH0HmHhDpUUhowHs-220" source="fhgAiH0HmHhDpUUhowHs-87" target="fhgAiH0HmHhDpUUhowHs-149">
          <mxGeometry relative="1" as="geometry">
            <Array as="points">
              <mxPoint x="370" y="221" />
              <mxPoint x="370" y="232" />
            </Array>
            <mxPoint x="445" y="345" as="targetPoint" />
          </mxGeometry>
        </mxCell>
        <mxCell id="fhgAiH0HmHhDpUUhowHs-97" style="edgeStyle=orthogonalEdgeStyle;rounded=0;orthogonalLoop=1;jettySize=auto;html=1;exitX=1;exitY=0.91;exitDx=0;exitDy=0;exitPerimeter=0;entryX=0;entryY=0.62;entryDx=0;entryDy=0;entryPerimeter=0;" edge="1" parent="fhgAiH0HmHhDpUUhowHs-220" source="fhgAiH0HmHhDpUUhowHs-87" target="fhgAiH0HmHhDpUUhowHs-149">
          <mxGeometry relative="1" as="geometry">
            <mxPoint x="440" y="345" as="targetPoint" />
            <Array as="points">
              <mxPoint x="380" y="228" />
              <mxPoint x="380" y="247" />
              <mxPoint x="390" y="247" />
            </Array>
          </mxGeometry>
        </mxCell>
        <mxCell id="fhgAiH0HmHhDpUUhowHs-98" style="edgeStyle=orthogonalEdgeStyle;rounded=0;orthogonalLoop=1;jettySize=auto;html=1;exitX=1;exitY=0.73;exitDx=0;exitDy=0;exitPerimeter=0;entryX=0;entryY=0.46;entryDx=0;entryDy=0;entryPerimeter=0;" edge="1" parent="fhgAiH0HmHhDpUUhowHs-220" source="fhgAiH0HmHhDpUUhowHs-87" target="fhgAiH0HmHhDpUUhowHs-149">
          <mxGeometry relative="1" as="geometry">
            <mxPoint x="435" y="345" as="targetPoint" />
            <Array as="points">
              <mxPoint x="360" y="213" />
              <mxPoint x="360" y="218" />
            </Array>
          </mxGeometry>
        </mxCell>
        <mxCell id="fhgAiH0HmHhDpUUhowHs-100" value="BCR+/-" style="edgeStyle=orthogonalEdgeStyle;rounded=0;orthogonalLoop=1;jettySize=auto;html=1;entryX=0;entryY=0.38;entryDx=0;entryDy=0;fontSize=8;exitX=0.989;exitY=0.511;exitDx=0;exitDy=0;exitPerimeter=0;entryPerimeter=0;" edge="1" parent="fhgAiH0HmHhDpUUhowHs-220" source="fhgAiH0HmHhDpUUhowHs-87" target="fhgAiH0HmHhDpUUhowHs-149">
          <mxGeometry x="0.7226" y="-2" relative="1" as="geometry">
            <mxPoint x="110" y="198" as="sourcePoint" />
            <mxPoint x="440" y="87.00000000000023" as="targetPoint" />
            <mxPoint as="offset" />
            <Array as="points">
              <mxPoint x="350" y="196" />
              <mxPoint x="350" y="203" />
            </Array>
          </mxGeometry>
        </mxCell>
        <mxCell id="fhgAiH0HmHhDpUUhowHs-101" value="SDA/CLK" style="edgeStyle=orthogonalEdgeStyle;rounded=0;orthogonalLoop=1;jettySize=auto;html=1;exitX=1;exitY=0.09;exitDx=0;exitDy=0;endArrow=classic;endFill=1;exitPerimeter=0;startArrow=classic;startFill=1;fontSize=8;entryX=0;entryY=0.08;entryDx=0;entryDy=0;entryPerimeter=0;" edge="1" parent="fhgAiH0HmHhDpUUhowHs-220" source="fhgAiH0HmHhDpUUhowHs-87" target="fhgAiH0HmHhDpUUhowHs-149">
          <mxGeometry x="-0.0008" relative="1" as="geometry">
            <mxPoint x="382" y="115" as="targetPoint" />
            <mxPoint as="offset" />
          </mxGeometry>
        </mxCell>
        <mxCell id="fhgAiH0HmHhDpUUhowHs-126" value="Level shifter" style="rounded=0;whiteSpace=wrap;html=1;" vertex="1" parent="fhgAiH0HmHhDpUUhowHs-220">
          <mxGeometry x="170" y="211" width="120" height="20" as="geometry" />
        </mxCell>
        <mxCell id="fhgAiH0HmHhDpUUhowHs-128" value="CLK&lt;br&gt;Chip" style="rounded=0;whiteSpace=wrap;html=1;" vertex="1" parent="fhgAiH0HmHhDpUUhowHs-220">
          <mxGeometry x="100" y="65" width="70" height="70" as="geometry" />
        </mxCell>
        <mxCell id="fhgAiH0HmHhDpUUhowHs-147" value="zCCM" style="swimlane;horizontal=0;whiteSpace=wrap;html=1;" vertex="1" parent="fhgAiH0HmHhDpUUhowHs-220">
          <mxGeometry width="450" height="435" as="geometry">
            <mxRectangle y="75" width="40" height="60" as="alternateBounds" />
          </mxGeometry>
        </mxCell>
        <mxCell id="fhgAiH0HmHhDpUUhowHs-146" value="PGOOD&lt;br style=&quot;font-size: 8px;&quot;&gt;PENABLE&lt;br style=&quot;font-size: 8px;&quot;&gt;RESET" style="text;html=1;strokeColor=none;fillColor=none;align=center;verticalAlign=middle;whiteSpace=wrap;rounded=0;fontSize=8;" vertex="1" parent="fhgAiH0HmHhDpUUhowHs-147">
          <mxGeometry x="120" y="231" width="60" height="30" as="geometry" />
        </mxCell>
        <mxCell id="fhgAiH0HmHhDpUUhowHs-150" value="LED+/-" style="edgeStyle=orthogonalEdgeStyle;rounded=0;orthogonalLoop=1;jettySize=auto;html=1;exitX=1;exitY=0.36;exitDx=0;exitDy=0;exitPerimeter=0;fontSize=8;entryX=0;entryY=0.31;entryDx=0;entryDy=0;entryPerimeter=0;" edge="1" parent="fhgAiH0HmHhDpUUhowHs-220" source="fhgAiH0HmHhDpUUhowHs-87" target="fhgAiH0HmHhDpUUhowHs-149">
          <mxGeometry x="0.4257" relative="1" as="geometry">
            <mxPoint as="offset" />
            <mxPoint x="110" y="184" as="sourcePoint" />
            <mxPoint x="390" y="225" as="targetPoint" />
            <Array as="points">
              <mxPoint x="350" y="184" />
              <mxPoint x="350" y="191" />
            </Array>
          </mxGeometry>
        </mxCell>
        <mxCell id="fhgAiH0HmHhDpUUhowHs-149" value="HDMI" style="rounded=0;whiteSpace=wrap;html=1;fillColor=#dae8fc;strokeColor=#6c8ebf;points=[[0,0,0,0,0],[0,0.08,0,0,0],[0,0.15,0,0,0],[0,0.23,0,0,0],[0,0.31,0,0,0],[0,0.38,0,0,0],[0,0.46,0,0,0],[0,0.54,0,0,0],[0,0.62,0,0,0],[0,0.69,0,0,0],[0,0.77,0,0,0],[0,0.85,0,0,0],[0,0.92,0,0,0],[0,1,0,0,0],[0.25,0,0,0,0],[0.25,1,0,0,0],[0.5,0,0,0,0],[0.5,1,0,0,0],[0.75,0,0,0,0],[0.75,1,0,0,0],[1,0,0,0,0],[1,0.25,0,0,0],[1,0.5,0,0,0],[1,0.75,0,0,0],[1,1,0,0,0]];" vertex="1" parent="fhgAiH0HmHhDpUUhowHs-220">
          <mxGeometry x="390" y="135" width="60.05" height="180" as="geometry" />
        </mxCell>
        <mxCell id="fhgAiH0HmHhDpUUhowHs-129" value="Clock fanout" style="rounded=0;whiteSpace=wrap;html=1;" vertex="1" parent="fhgAiH0HmHhDpUUhowHs-220">
          <mxGeometry x="170" y="169" width="120" height="30" as="geometry" />
        </mxCell>
        <mxCell id="fhgAiH0HmHhDpUUhowHs-127" value="MCLK+/-" style="edgeStyle=orthogonalEdgeStyle;rounded=0;orthogonalLoop=1;jettySize=auto;html=1;exitX=0.5;exitY=1;exitDx=0;exitDy=0;fontSize=8;entryX=0;entryY=0.23;entryDx=0;entryDy=0;entryPerimeter=0;" edge="1" parent="fhgAiH0HmHhDpUUhowHs-220" source="fhgAiH0HmHhDpUUhowHs-128" target="fhgAiH0HmHhDpUUhowHs-149">
          <mxGeometry x="0.7207" relative="1" as="geometry">
            <Array as="points">
              <mxPoint x="135" y="175" />
              <mxPoint x="350" y="175" />
              <mxPoint x="350" y="176" />
            </Array>
            <mxPoint as="offset" />
            <mxPoint x="390" y="191" as="targetPoint" />
          </mxGeometry>
        </mxCell>
        <mxCell id="fhgAiH0HmHhDpUUhowHs-151" value="JTAG" style="edgeStyle=orthogonalEdgeStyle;rounded=0;orthogonalLoop=1;jettySize=auto;html=1;exitX=0.5;exitY=1;exitDx=0;exitDy=0;exitPerimeter=0;entryX=0;entryY=0.77;entryDx=0;entryDy=0;entryPerimeter=0;fontSize=8;" edge="1" parent="fhgAiH0HmHhDpUUhowHs-220" source="fhgAiH0HmHhDpUUhowHs-87" target="fhgAiH0HmHhDpUUhowHs-149">
          <mxGeometry relative="1" as="geometry" />
        </mxCell>
        <mxCell id="fhgAiH0HmHhDpUUhowHs-221" value="" style="group" vertex="1" connectable="0" parent="1">
          <mxGeometry x="620" y="820" width="160" height="230" as="geometry" />
        </mxCell>
        <mxCell id="fhgAiH0HmHhDpUUhowHs-130" value="Backplane" style="rounded=0;whiteSpace=wrap;html=1;" vertex="1" parent="fhgAiH0HmHhDpUUhowHs-221">
          <mxGeometry width="160" height="230" as="geometry" />
        </mxCell>
        <mxCell id="fhgAiH0HmHhDpUUhowHs-131" value="HDMI" style="rounded=0;whiteSpace=wrap;html=1;fillColor=#dae8fc;strokeColor=#6c8ebf;" vertex="1" parent="fhgAiH0HmHhDpUUhowHs-221">
          <mxGeometry x="90" width="60" height="30" as="geometry" />
        </mxCell>
        <mxCell id="fhgAiH0HmHhDpUUhowHs-132" value="PWR" style="rounded=0;whiteSpace=wrap;html=1;fillColor=#d5e8d4;strokeColor=#82b366;" vertex="1" parent="fhgAiH0HmHhDpUUhowHs-221">
          <mxGeometry x="20" width="40" height="20" as="geometry" />
        </mxCell>
        <mxCell id="fhgAiH0HmHhDpUUhowHs-222" value="" style="group" vertex="1" connectable="0" parent="1">
          <mxGeometry x="620" y="290" width="160" height="230" as="geometry" />
        </mxCell>
        <mxCell id="fhgAiH0HmHhDpUUhowHs-3" value="Backplane" style="rounded=0;whiteSpace=wrap;html=1;" vertex="1" parent="fhgAiH0HmHhDpUUhowHs-222">
          <mxGeometry width="160" height="230" as="geometry" />
        </mxCell>
        <mxCell id="fhgAiH0HmHhDpUUhowHs-4" value="HDMI" style="rounded=0;whiteSpace=wrap;html=1;fillColor=#dae8fc;strokeColor=#6c8ebf;" vertex="1" parent="fhgAiH0HmHhDpUUhowHs-222">
          <mxGeometry x="90" width="60" height="30" as="geometry" />
        </mxCell>
        <mxCell id="fhgAiH0HmHhDpUUhowHs-5" value="PWR" style="rounded=0;whiteSpace=wrap;html=1;fillColor=#d5e8d4;strokeColor=#82b366;" vertex="1" parent="fhgAiH0HmHhDpUUhowHs-222">
          <mxGeometry x="20" width="40" height="20" as="geometry" />
        </mxCell>
        <mxCell id="fhgAiH0HmHhDpUUhowHs-223" value="" style="group" vertex="1" connectable="0" parent="1">
          <mxGeometry y="75" width="450" height="435" as="geometry" />
        </mxCell>
        <mxCell id="TbumQkPZerBBFcN5Bay4-1" value="Zynq PL" style="whiteSpace=wrap;html=1;aspect=fixed;points=[[0,0,0,0,0],[0,0.25,0,0,0],[0,0.5,0,0,0],[0,0.75,0,0,0],[0,1,0,0,0],[0.25,0,0,0,0],[0.25,1,0,0,0],[0.5,0,0,0,0],[0.5,1,0,0,0],[0.75,0,0,0,0],[0.75,1,0,0,0],[1,0,0,0,0],[1,0.09,0,0,0],[1,0.18,0,0,0],[1,0.27,0,0,0],[1,0.36,0,0,0],[1,0.45,0,0,0],[1,0.55,0,0,0],[1,0.64,0,0,0],[1,0.73,0,0,0],[1,0.82,0,0,0],[1,0.91,0,0,0],[1,1,0,0,0]];" parent="fhgAiH0HmHhDpUUhowHs-223" vertex="1">
          <mxGeometry x="30" y="155" width="80" height="80" as="geometry" />
        </mxCell>
        <mxCell id="TbumQkPZerBBFcN5Bay4-2" value="" style="rounded=0;whiteSpace=wrap;html=1;" parent="fhgAiH0HmHhDpUUhowHs-223" vertex="1">
          <mxGeometry x="350" y="50" width="100" height="355" as="geometry" />
        </mxCell>
        <mxCell id="TbumQkPZerBBFcN5Bay4-3" value="" style="rounded=0;whiteSpace=wrap;html=1;fillColor=#f8cecc;strokeColor=#b85450;" parent="fhgAiH0HmHhDpUUhowHs-223" vertex="1">
          <mxGeometry x="430" y="67" width="20" height="20" as="geometry" />
        </mxCell>
        <mxCell id="TbumQkPZerBBFcN5Bay4-9" value="" style="rounded=0;whiteSpace=wrap;html=1;fillColor=#f5f5f5;fontColor=#333333;strokeColor=#666666;" parent="fhgAiH0HmHhDpUUhowHs-223" vertex="1">
          <mxGeometry x="350" y="155" width="20" height="120" as="geometry" />
        </mxCell>
        <mxCell id="TbumQkPZerBBFcN5Bay4-14" style="edgeStyle=orthogonalEdgeStyle;rounded=0;orthogonalLoop=1;jettySize=auto;html=1;exitX=1;exitY=0.25;exitDx=0;exitDy=0;entryX=0;entryY=0.5;entryDx=0;entryDy=0;startArrow=classic;startFill=1;" parent="fhgAiH0HmHhDpUUhowHs-223" source="TbumQkPZerBBFcN5Bay4-13" target="TbumQkPZerBBFcN5Bay4-3" edge="1">
          <mxGeometry relative="1" as="geometry">
            <Array as="points">
              <mxPoint x="420" y="77" />
            </Array>
          </mxGeometry>
        </mxCell>
        <mxCell id="TbumQkPZerBBFcN5Bay4-13" value="LTC4331" style="rounded=0;whiteSpace=wrap;html=1;fillColor=#ffe6cc;strokeColor=#d79b00;fontSize=6;" parent="fhgAiH0HmHhDpUUhowHs-223" vertex="1">
          <mxGeometry x="360" y="65" width="45" height="50" as="geometry" />
        </mxCell>
        <mxCell id="TbumQkPZerBBFcN5Bay4-16" value="" style="rounded=0;whiteSpace=wrap;html=1;fillColor=#f8cecc;strokeColor=#b85450;" parent="fhgAiH0HmHhDpUUhowHs-223" vertex="1">
          <mxGeometry x="430" y="345" width="20" height="20" as="geometry" />
        </mxCell>
        <mxCell id="TbumQkPZerBBFcN5Bay4-17" style="edgeStyle=orthogonalEdgeStyle;rounded=0;orthogonalLoop=1;jettySize=auto;html=1;exitX=1;exitY=0.82;exitDx=0;exitDy=0;exitPerimeter=0;entryX=0.75;entryY=0;entryDx=0;entryDy=0;" parent="fhgAiH0HmHhDpUUhowHs-223" source="TbumQkPZerBBFcN5Bay4-1" target="TbumQkPZerBBFcN5Bay4-16" edge="1">
          <mxGeometry relative="1" as="geometry">
            <Array as="points">
              <mxPoint x="390" y="221" />
              <mxPoint x="390" y="275" />
              <mxPoint x="445" y="275" />
            </Array>
          </mxGeometry>
        </mxCell>
        <mxCell id="TbumQkPZerBBFcN5Bay4-15" style="edgeStyle=orthogonalEdgeStyle;rounded=0;orthogonalLoop=1;jettySize=auto;html=1;exitX=1;exitY=0.91;exitDx=0;exitDy=0;exitPerimeter=0;entryX=0.5;entryY=0;entryDx=0;entryDy=0;" parent="fhgAiH0HmHhDpUUhowHs-223" source="TbumQkPZerBBFcN5Bay4-1" target="TbumQkPZerBBFcN5Bay4-16" edge="1">
          <mxGeometry relative="1" as="geometry">
            <mxPoint x="405" y="135" as="targetPoint" />
            <Array as="points">
              <mxPoint x="380" y="228" />
              <mxPoint x="380" y="315" />
              <mxPoint x="440" y="315" />
            </Array>
          </mxGeometry>
        </mxCell>
        <mxCell id="TbumQkPZerBBFcN5Bay4-18" style="edgeStyle=orthogonalEdgeStyle;rounded=0;orthogonalLoop=1;jettySize=auto;html=1;exitX=1;exitY=0.73;exitDx=0;exitDy=0;exitPerimeter=0;entryX=0.25;entryY=0;entryDx=0;entryDy=0;" parent="fhgAiH0HmHhDpUUhowHs-223" source="TbumQkPZerBBFcN5Bay4-1" target="TbumQkPZerBBFcN5Bay4-16" edge="1">
          <mxGeometry relative="1" as="geometry" />
        </mxCell>
        <mxCell id="TbumQkPZerBBFcN5Bay4-20" value="LED+/-" style="edgeStyle=orthogonalEdgeStyle;rounded=0;orthogonalLoop=1;jettySize=auto;html=1;exitX=1;exitY=0.36;exitDx=0;exitDy=0;exitPerimeter=0;entryX=0.75;entryY=1;entryDx=0;entryDy=0;fontSize=8;" parent="fhgAiH0HmHhDpUUhowHs-223" source="TbumQkPZerBBFcN5Bay4-1" target="TbumQkPZerBBFcN5Bay4-3" edge="1">
          <mxGeometry x="0.4257" relative="1" as="geometry">
            <mxPoint as="offset" />
          </mxGeometry>
        </mxCell>
        <mxCell id="TbumQkPZerBBFcN5Bay4-21" value="BCR+/-" style="edgeStyle=orthogonalEdgeStyle;rounded=0;orthogonalLoop=1;jettySize=auto;html=1;entryX=0.5;entryY=1;entryDx=0;entryDy=0;fontSize=8;exitX=0.989;exitY=0.511;exitDx=0;exitDy=0;exitPerimeter=0;" parent="fhgAiH0HmHhDpUUhowHs-223" edge="1" target="TbumQkPZerBBFcN5Bay4-3" source="TbumQkPZerBBFcN5Bay4-1">
          <mxGeometry x="0.3085" relative="1" as="geometry">
            <mxPoint x="110" y="198" as="sourcePoint" />
            <mxPoint x="415" y="85" as="targetPoint" />
            <mxPoint as="offset" />
          </mxGeometry>
        </mxCell>
        <mxCell id="TbumQkPZerBBFcN5Bay4-10" value="SDA/CLK" style="edgeStyle=orthogonalEdgeStyle;rounded=0;orthogonalLoop=1;jettySize=auto;html=1;exitX=1;exitY=0.09;exitDx=0;exitDy=0;endArrow=classic;endFill=1;exitPerimeter=0;startArrow=classic;startFill=1;fontSize=8;" parent="fhgAiH0HmHhDpUUhowHs-223" source="TbumQkPZerBBFcN5Bay4-1" target="TbumQkPZerBBFcN5Bay4-13" edge="1">
          <mxGeometry x="-0.0008" relative="1" as="geometry">
            <mxPoint x="290" y="135" as="targetPoint" />
            <mxPoint as="offset" />
          </mxGeometry>
        </mxCell>
        <mxCell id="TbumQkPZerBBFcN5Bay4-53" value="Level shifter" style="rounded=0;whiteSpace=wrap;html=1;" parent="fhgAiH0HmHhDpUUhowHs-223" vertex="1">
          <mxGeometry x="170" y="211" width="120" height="20" as="geometry" />
        </mxCell>
        <mxCell id="fhgAiH0HmHhDpUUhowHs-2" value="MCLK+/-" style="edgeStyle=orthogonalEdgeStyle;rounded=0;orthogonalLoop=1;jettySize=auto;html=1;exitX=0.5;exitY=1;exitDx=0;exitDy=0;entryX=0.25;entryY=1;entryDx=0;entryDy=0;fontSize=8;" edge="1" parent="fhgAiH0HmHhDpUUhowHs-223" source="fhgAiH0HmHhDpUUhowHs-1" target="TbumQkPZerBBFcN5Bay4-3">
          <mxGeometry x="0.3784" relative="1" as="geometry">
            <Array as="points">
              <mxPoint x="135" y="175" />
              <mxPoint x="435" y="175" />
            </Array>
            <mxPoint as="offset" />
          </mxGeometry>
        </mxCell>
        <mxCell id="fhgAiH0HmHhDpUUhowHs-1" value="CLK&lt;br&gt;Chip" style="rounded=0;whiteSpace=wrap;html=1;" vertex="1" parent="fhgAiH0HmHhDpUUhowHs-223">
          <mxGeometry x="100" y="65" width="70" height="70" as="geometry" />
        </mxCell>
        <mxCell id="TbumQkPZerBBFcN5Bay4-54" value="Clock fanout" style="rounded=0;whiteSpace=wrap;html=1;" parent="fhgAiH0HmHhDpUUhowHs-223" vertex="1">
          <mxGeometry x="170" y="169" width="120" height="30" as="geometry" />
        </mxCell>
        <mxCell id="fhgAiH0HmHhDpUUhowHs-22" value="PGOOD&lt;br style=&quot;font-size: 8px;&quot;&gt;PENABLE&lt;br style=&quot;font-size: 8px;&quot;&gt;RESET" style="text;html=1;strokeColor=none;fillColor=none;align=center;verticalAlign=middle;whiteSpace=wrap;rounded=0;fontSize=8;" vertex="1" parent="fhgAiH0HmHhDpUUhowHs-223">
          <mxGeometry x="120" y="235" width="60" height="30" as="geometry" />
        </mxCell>
        <mxCell id="fhgAiH0HmHhDpUUhowHs-85" value="zCCM" style="swimlane;horizontal=0;whiteSpace=wrap;html=1;" vertex="1" parent="fhgAiH0HmHhDpUUhowHs-223">
          <mxGeometry width="450" height="435" as="geometry">
            <mxRectangle y="75" width="40" height="60" as="alternateBounds" />
          </mxGeometry>
        </mxCell>
        <mxCell id="fhgAiH0HmHhDpUUhowHs-86" value="Mezzanine" style="text;html=1;strokeColor=none;fillColor=none;align=center;verticalAlign=middle;whiteSpace=wrap;rounded=0;" vertex="1" parent="fhgAiH0HmHhDpUUhowHs-223">
          <mxGeometry x="370" y="381" width="60" height="30" as="geometry" />
        </mxCell>
        <mxCell id="fhgAiH0HmHhDpUUhowHs-224" value="" style="rounded=0;whiteSpace=wrap;html=1;fillColor=#f8cecc;strokeColor=#b85450;" vertex="1" parent="1">
          <mxGeometry x="590" y="20" width="20" height="20" as="geometry" />
        </mxCell>
        <mxCell id="fhgAiH0HmHhDpUUhowHs-225" value="RJ45" style="text;html=1;strokeColor=none;fillColor=none;align=center;verticalAlign=middle;whiteSpace=wrap;rounded=0;" vertex="1" parent="1">
          <mxGeometry x="614" y="15" width="60" height="30" as="geometry" />
        </mxCell>
        <mxCell id="fhgAiH0HmHhDpUUhowHs-235" value="RM" style="rounded=0;whiteSpace=wrap;html=1;" vertex="1" parent="1">
          <mxGeometry x="620" y="1610" width="160" height="60" as="geometry" />
        </mxCell>
        <mxCell id="fhgAiH0HmHhDpUUhowHs-238" style="edgeStyle=orthogonalEdgeStyle;rounded=0;orthogonalLoop=1;jettySize=auto;html=1;exitX=0.5;exitY=1;exitDx=0;exitDy=0;" edge="1" parent="1" source="fhgAiH0HmHhDpUUhowHs-236" target="fhgAiH0HmHhDpUUhowHs-235">
          <mxGeometry relative="1" as="geometry" />
        </mxCell>
      </root>
    </mxGraphModel>
  </diagram>
</mxfile>
